<?xml version="1.0" encoding="UTF-8"?>
<svg version="1.1" xmlns="http://www.w3.org/2000/svg" width="100" height="100">
<path d="M0 0 C0.95550499 0.41859283 0.95550499 0.41859283 1.93031311 0.84564209 C3.94994411 1.73414555 5.96107364 2.64032113 7.97265625 3.546875 C9.31785964 4.14045673 10.6635596 4.73291446 12.00976562 5.32421875 C30.00010826 13.26182701 30.00010826 13.26182701 32.03515625 15.296875 C32.12045021 19.03762447 31.85942712 22.64497294 31.03515625 26.296875 C28.47265625 28.484375 28.47265625 28.484375 26.03515625 29.296875 C28.01515625 30.616875 29.99515625 31.936875 32.03515625 33.296875 C31.96552992 37.02504847 31.80077742 40.64130351 31.03515625 44.296875 C28.47265625 46.484375 28.47265625 46.484375 26.03515625 47.296875 C28.01515625 48.616875 29.99515625 49.936875 32.03515625 51.296875 C32.69231984 55.35934083 32.58956776 58.45686499 31.03515625 62.296875 C26.95078143 65.4007678 22.4531024 67.16811803 17.73388672 69.12060547 C14.66919144 70.45638454 11.70613996 71.94102726 8.7265625 73.45703125 C7.63214844 74.00818604 6.53773437 74.55934082 5.41015625 75.12719727 C3.23791854 76.22212163 1.06977121 77.32520728 -1.09375 78.43725586 C-2.11210938 78.93749268 -3.13046875 79.43772949 -4.1796875 79.953125 C-5.0780835 80.40494141 -5.97647949 80.85675781 -6.90209961 81.32226562 C-14.66527674 83.79262059 -20.64145558 82.12968514 -27.71875 78.578125 C-28.50507309 78.20079224 -29.29139618 77.82345947 -30.10154724 77.43469238 C-32.58507728 76.23832602 -35.05600746 75.01819874 -37.52734375 73.796875 C-39.21992551 72.97625875 -40.91327895 72.15723214 -42.60742188 71.33984375 C-46.73570954 69.34378376 -50.85288372 67.32634365 -54.96484375 65.296875 C-55.07284605 63.19383023 -55.15043362 61.08920591 -55.21484375 58.984375 C-55.26125 57.81261719 -55.30765625 56.64085937 -55.35546875 55.43359375 C-54.96484375 52.296875 -54.96484375 52.296875 -52.94921875 50.37890625 C-51.96695313 49.84330078 -51.96695313 49.84330078 -50.96484375 49.296875 C-52.28484375 48.636875 -53.60484375 47.976875 -54.96484375 47.296875 C-55.07284605 45.19383023 -55.15043362 43.08920591 -55.21484375 40.984375 C-55.26125 39.81261719 -55.30765625 38.64085937 -55.35546875 37.43359375 C-54.96484375 34.296875 -54.96484375 34.296875 -52.94921875 32.37890625 C-51.96695313 31.84330078 -51.96695313 31.84330078 -50.96484375 31.296875 C-51.60421875 31.090625 -52.24359375 30.884375 -52.90234375 30.671875 C-54.96484375 29.296875 -54.96484375 29.296875 -55.77734375 26.609375 C-55.9888823 22.87219397 -55.88533449 19.9381083 -54.96484375 16.296875 C-52.5 14.50390625 -52.5 14.50390625 -49.02734375 13.109375 C-47.67335316 12.54435746 -46.32058699 11.97640092 -44.96875 11.40625 C-44.19418457 11.08720703 -43.41961914 10.76816406 -42.62158203 10.43945312 C-39.51549551 9.1036247 -36.47659521 7.65324561 -33.4296875 6.1875 C-32.28298584 5.63989014 -31.13628418 5.09228027 -29.95483398 4.52807617 C-27.65534823 3.42860187 -25.35918223 2.3221533 -23.06665039 1.20825195 C-21.45391235 0.44967896 -21.45391235 0.44967896 -19.80859375 -0.32421875 C-18.85146484 -0.7823999 -17.89433594 -1.24058105 -16.90820312 -1.71264648 C-10.5987121 -3.83587186 -5.93874961 -2.63689813 0 0 Z " fill="#111111" transform="translate(60.96484375,11.703125)"/>
<path d="M0 0 C6.6 0.6 6.6 0.6 9 3 C9.9444441 7.06521591 9.67969977 10.17633561 8 14 C3.90531559 17.09131274 -0.58111953 18.87085647 -5.30126953 20.82373047 C-8.36596481 22.15950954 -11.32901629 23.64415226 -14.30859375 25.16015625 C-15.40300781 25.71131104 -16.49742188 26.26246582 -17.625 26.83032227 C-19.79723771 27.92524663 -21.96538504 29.02833228 -24.12890625 30.14038086 C-25.14726563 30.64061768 -26.165625 31.14085449 -27.21484375 31.65625 C-28.11323975 32.10806641 -29.01163574 32.55988281 -29.93725586 33.02539062 C-37.70043299 35.49574559 -43.67661183 33.83281014 -50.75390625 30.28125 C-51.54022934 29.90391724 -52.32655243 29.52658447 -53.13670349 29.13781738 C-55.62023353 27.94145102 -58.09116371 26.72132374 -60.5625 25.5 C-62.25508176 24.67938375 -63.9484352 23.86035714 -65.64257812 23.04296875 C-69.77086579 21.04690876 -73.88803997 19.02946865 -78 17 C-78.08078641 14.87561661 -78.13909141 12.7503677 -78.1875 10.625 C-78.22230469 9.44164063 -78.25710937 8.25828125 -78.29296875 7.0390625 C-78.19628906 6.03617187 -78.09960938 5.03328125 -78 4 C-74.54754176 1.69836118 -73.05261287 1.65509678 -69 2 C-68.34 2.66 -67.68 3.32 -67 4 C-67.99 4.66 -68.98 5.32 -70 6 C-65.35838875 8.38607828 -60.6922183 10.71550143 -56 13 C-55.3002002 13.34144043 -54.60040039 13.68288086 -53.87939453 14.03466797 C-51.78309796 15.04453103 -49.67559752 16.02585408 -47.5625 17 C-46.91345703 17.31461182 -46.26441406 17.62922363 -45.59570312 17.95336914 C-40.88757755 20.0774581 -37.99267756 20.03257352 -33 19 C-30.46117111 18.01596978 -28.05706368 17.00096407 -25.60546875 15.83984375 C-24.59532463 15.37584923 -24.59532463 15.37584923 -23.56477356 14.90248108 C-21.43494493 13.92269095 -19.31101674 12.93088619 -17.1875 11.9375 C-15.0453187 10.94246099 -12.90198725 9.95006316 -10.75666809 8.96180725 C-9.42691327 8.34853721 -8.09910475 7.73102559 -6.77348328 7.10887146 C-2.22256297 5 -2.22256297 5 0 5 C-0.2784375 4.0409375 -0.2784375 4.0409375 -0.5625 3.0625 C-0.7790625 2.0415625 -0.7790625 2.0415625 -1 1 C-0.67 0.67 -0.34 0.34 0 0 Z " fill="#191919" transform="translate(84,60)"/>
<path d="M0 0 C1.69382812 0.79857422 1.69382812 0.79857422 3.421875 1.61328125 C4.576875 2.17660156 5.731875 2.73992188 6.921875 3.3203125 C8.09234375 3.87589844 9.2628125 4.43148438 10.46875 5.00390625 C14.89120821 7.1086312 19.29639167 9.24452527 23.671875 11.4453125 C18.77882703 14.70734448 13.37860358 17.02058086 8.06762695 19.52270508 C6.68540759 20.1763152 5.30548458 20.83480507 3.92797852 21.49829102 C1.92714558 22.46186835 -0.08034689 23.41011643 -2.08984375 24.35546875 C-2.69535568 24.65026627 -3.30086761 24.94506378 -3.92472839 25.24879456 C-9.92140551 28.02966872 -14.73266356 29.2553814 -21.08203125 27.27368164 C-22.36060646 26.69554211 -23.63005826 26.09688692 -24.890625 25.48046875 C-25.56738281 25.16830917 -26.24414062 24.8561496 -26.94140625 24.53453064 C-29.07919755 23.54346705 -31.20330669 22.52634635 -33.328125 21.5078125 C-34.78433091 20.82700789 -36.24135636 20.14795331 -37.69921875 19.47070312 C-41.25198152 17.81565208 -44.79273305 16.13713216 -48.328125 14.4453125 C-45.66400029 11.24896764 -42.23973222 9.77939725 -38.53515625 8.08984375 C-37.87029709 7.78334396 -37.20543793 7.47684418 -36.52043152 7.16105652 C-35.11416331 6.5162429 -33.70618236 5.87515328 -32.29663086 5.23754883 C-30.15824749 4.26582055 -28.03148837 3.27133326 -25.90429688 2.27539062 C-24.53190229 1.64960916 -23.15887401 1.02521521 -21.78515625 0.40234375 C-21.15777054 0.105522 -20.53038483 -0.19129974 -19.88398743 -0.49711609 C-12.77431281 -3.64926168 -7.02806892 -3.36997124 0 0 Z " fill="#F4F4F4" transform="translate(61.328125,16.5546875)"/>
<path d="M0 0 C0.95550499 0.41859283 0.95550499 0.41859283 1.93031311 0.84564209 C3.94994411 1.73414555 5.96107364 2.64032113 7.97265625 3.546875 C9.31785964 4.14045673 10.6635596 4.73291446 12.00976562 5.32421875 C30.00010826 13.26182701 30.00010826 13.26182701 32.03515625 15.296875 C32.07579457 16.96304615 32.07787725 18.63075595 32.03515625 20.296875 C31.37515625 19.966875 30.71515625 19.636875 30.03515625 19.296875 C27.87475842 20.11014731 27.87475842 20.11014731 27.20385742 22.19995117 C25.66880737 24.95419076 24.18052843 25.53639203 21.3359375 26.84765625 C20.38074219 27.29592773 19.42554687 27.74419922 18.44140625 28.20605469 C16.91 28.90069824 16.91 28.90069824 15.34765625 29.609375 C13.24998136 30.57938677 11.15232513 31.54943891 9.0546875 32.51953125 C8.02682129 32.9902002 6.99895508 33.46086914 5.93994141 33.94580078 C3.40890647 35.12303623 0.9112194 36.34317931 -1.578125 37.60546875 C-2.24561768 37.93828857 -2.91311035 38.2711084 -3.60083008 38.61401367 C-5.3407338 39.48476313 -7.07490024 40.3669505 -8.80859375 41.25 C-15.28897292 43.39943269 -20.84369063 40.74190085 -26.6484375 37.91796875 C-27.69899071 37.42068016 -27.69899071 37.42068016 -28.77076721 36.91334534 C-30.98560191 35.86247047 -33.1939441 34.79869592 -35.40234375 33.734375 C-36.91169778 33.01541132 -38.42145984 32.29730359 -39.93164062 31.58007812 C-43.61416695 29.82887219 -47.2909319 28.06607761 -50.96484375 26.296875 C-50.96484375 24.976875 -50.96484375 23.656875 -50.96484375 22.296875 C-52.28484375 21.966875 -53.60484375 21.636875 -54.96484375 21.296875 C-54.96484375 19.646875 -54.96484375 17.996875 -54.96484375 16.296875 C-49.73301769 13.84499612 -49.73301769 13.84499612 -47.14257812 12.64428711 C-42.55394993 10.51602269 -37.9856463 8.34944323 -33.42578125 6.16015625 C-31.10560929 5.0595995 -28.78529618 3.95934027 -26.46484375 2.859375 C-25.34352051 2.31506836 -24.22219727 1.77076172 -23.06689453 1.20996094 C-21.99165527 0.70368164 -20.91641602 0.19740234 -19.80859375 -0.32421875 C-18.85146484 -0.7823999 -17.89433594 -1.24058105 -16.90820312 -1.71264648 C-10.5987121 -3.83587186 -5.93874961 -2.63689813 0 0 Z M-21.9296875 5.5078125 C-22.64846573 5.83600983 -23.36724396 6.16420715 -24.10780334 6.50234985 C-25.61266907 7.1930236 -27.11423897 7.89092041 -28.61254883 8.59570312 C-30.91331825 9.67703286 -33.22390063 10.73464463 -35.53710938 11.7890625 C-37.00192551 12.46479604 -38.46614119 13.14183307 -39.9296875 13.8203125 C-40.6212645 14.13809662 -41.31284149 14.45588074 -42.02537537 14.78329468 C-45.64349385 16.31366306 -45.64349385 16.31366306 -47.96484375 19.296875 C-43.70782556 21.33402029 -39.43971934 23.34495346 -35.15966797 25.33325195 C-33.70750206 26.01216778 -32.25852463 26.6979498 -30.81298828 27.39086914 C-28.72593113 28.38980862 -26.62838322 29.36291116 -24.52734375 30.33203125 C-23.89054687 30.64342545 -23.25375 30.95481964 -22.59765625 31.27565002 C-17.08657848 33.76762069 -12.55371015 33.54376102 -6.99829102 31.6136322 C-4.95344051 30.77612813 -2.96110862 29.86527584 -0.96484375 28.91796875 C-0.24369385 28.58644302 0.47745605 28.2549173 1.22045898 27.91334534 C3.49694605 26.86395562 5.76599795 25.79950488 8.03515625 24.734375 C9.58807337 24.01526389 11.14145503 23.29715506 12.6953125 22.58007812 C16.48072698 20.83054606 20.2595562 19.06748152 24.03515625 17.296875 C22.51807817 14.26271883 20.17473884 13.85313342 17.1015625 12.51171875 C15.89564453 11.98126953 14.68972656 11.45082031 13.44726562 10.90429688 C12.16414549 10.34746498 10.88094136 9.79082658 9.59765625 9.234375 C8.31809367 8.67443492 7.03879328 8.11389527 5.75976562 7.55273438 C3.41615734 6.52545066 1.07129732 5.50101504 -1.27514648 4.48022461 C-2.85349029 3.7858221 -4.42254313 3.06802531 -5.96484375 2.296875 C-12.20455905 1.8441313 -16.32993436 2.84740008 -21.9296875 5.5078125 Z " fill="#161616" transform="translate(60.96484375,11.703125)"/>
<path d="M0 0 C0.99 0.33 1.98 0.66 3 1 C2.67 2.65 2.34 4.3 2 6 C3.27822632 6.15650024 3.27822632 6.15650024 4.58227539 6.31616211 C8.30935026 7.06189657 11.25088855 8.31574583 14.68359375 9.94140625 C15.95362727 10.53091957 17.22381433 11.1201022 18.49414062 11.70898438 C20.46893957 12.63464837 22.44159157 13.56444483 24.41137695 14.50073242 C26.33022396 15.40930732 28.25620528 16.30112537 30.18359375 17.19140625 C31.32368896 17.72967041 32.46378418 18.26793457 33.63842773 18.82250977 C39.58407792 20.90514981 43.89037909 20.41632634 49.59359741 17.78996277 C50.25106964 17.47126724 50.90854187 17.15257172 51.5859375 16.82421875 C52.63776718 16.33548027 52.63776718 16.33548027 53.71084595 15.83686829 C55.93831602 14.79951975 58.15686417 13.74464074 60.375 12.6875 C63.29632805 11.30961759 66.22117461 9.9394443 69.1484375 8.57421875 C69.84201355 8.24976776 70.5355896 7.92531677 71.25018311 7.59103394 C76.07739068 5.35817597 80.89102689 3.50501352 86 2 C86.70649351 7.21038961 86.70649351 7.21038961 86 10 C84.02281547 11.66933343 82.09254661 12.70694012 79.75 13.796875 C79.1725 14.19390625 78.595 14.5909375 78 15 C78 16.32 78 17.64 78 19 C73.15397554 21.31945492 68.29778406 23.61549041 63.4309082 25.89086914 C61.77820085 26.66746197 60.12840244 27.45027804 58.48168945 28.23950195 C56.10853081 29.37555041 53.72567024 30.48850609 51.33984375 31.59765625 C50.61039047 31.952798 49.88093719 32.30793976 49.12937927 32.67384338 C44.33682971 34.86689449 41.26429775 35.38075009 36 34 C33.62471807 33.10199278 31.28159044 32.11557251 28.97265625 31.05859375 C28.33887558 30.77146011 27.70509491 30.48432648 27.05210876 30.18849182 C25.05162764 29.27986756 23.05709814 28.35895563 21.0625 27.4375 C19.69764165 26.81493019 18.33241031 26.1931774 16.96679688 25.57226562 C13.64016896 24.05759328 10.31875644 22.5318559 7 21 C7.99 20.01 8.98 19.02 10 18 C6.7 16.35 3.4 14.7 0 13 C0 8.71 0 4.42 0 0 Z " fill="#111111" transform="translate(6,46)"/>
<path d="M0 0 C2.33944736 0.28730055 4.6739143 0.61936779 7 1 C7.495 3.475 7.495 3.475 8 6 C7.01193359 6.41677002 6.02386719 6.83354004 5.00585938 7.26293945 C0.92661127 9.01150841 -3.08184416 10.89617654 -7.09375 12.79296875 C-9.42749036 13.8843059 -11.762311 14.97330996 -14.09716797 16.06225586 C-15.70112492 16.8133875 -17.30301963 17.5689384 -18.90283203 18.32885742 C-21.23165506 19.43360448 -23.56795363 20.52094525 -25.90625 21.60546875 C-26.6137439 21.94603806 -27.32123779 22.28660736 -28.0501709 22.63749695 C-33.88764768 25.31370121 -38.32013705 25.93131944 -44.56103516 23.76245117 C-45.80990061 23.20290539 -47.05243607 22.62906728 -48.2890625 22.04296875 C-48.95537689 21.73933914 -49.62169128 21.43570953 -50.30819702 21.12287903 C-52.41966804 20.15663125 -54.5220421 19.17211493 -56.625 18.1875 C-58.04374726 17.53726785 -59.46301429 16.88816854 -60.8828125 16.24023438 C-62.24785552 15.61297858 -63.61245461 14.9847556 -64.9765625 14.35546875 C-65.92204453 13.91934517 -65.92204453 13.91934517 -66.8866272 13.47441101 C-76.66930562 8.89033101 -76.66930562 8.89033101 -77.8125 5.8125 C-77.874375 5.214375 -77.93625 4.61625 -78 4 C-74.54754176 1.69836118 -73.05261287 1.65509678 -69 2 C-68.34 2.66 -67.68 3.32 -67 4 C-67.99 4.66 -68.98 5.32 -70 6 C-65.35838875 8.38607828 -60.6922183 10.71550143 -56 13 C-55.3002002 13.34144043 -54.60040039 13.68288086 -53.87939453 14.03466797 C-51.78309796 15.04453103 -49.67559752 16.02585408 -47.5625 17 C-46.91345703 17.31461182 -46.26441406 17.62922363 -45.59570312 17.95336914 C-40.88757755 20.0774581 -37.99267756 20.03257352 -33 19 C-30.46117111 18.01596978 -28.05706368 17.00096407 -25.60546875 15.83984375 C-24.59532463 15.37584923 -24.59532463 15.37584923 -23.56477356 14.90248108 C-21.43494493 13.92269095 -19.31101674 12.93088619 -17.1875 11.9375 C-15.0453187 10.94246099 -12.90198725 9.95006316 -10.75666809 8.96180725 C-9.42691327 8.34853721 -8.09910475 7.73102559 -6.77348328 7.10887146 C-2.22256297 5 -2.22256297 5 0 5 C-0.2784375 4.0409375 -0.2784375 4.0409375 -0.5625 3.0625 C-0.7790625 2.0415625 -0.7790625 2.0415625 -1 1 C-0.67 0.67 -0.34 0.34 0 0 Z " fill="#101010" transform="translate(84,60)"/>
<path d="M0 0 C3 0.75 3 0.75 6 2.75 C4.99197744 5.51960121 4.33270893 6.56988716 1.70043945 7.99487305 C0.74355225 8.35105713 -0.21333496 8.70724121 -1.19921875 9.07421875 C-5.9660141 10.93212331 -10.63583062 12.91588871 -15.26953125 15.08203125 C-16.51994432 15.65871938 -17.77059722 16.23488778 -19.02148438 16.81054688 C-20.93113753 17.69072943 -22.83853683 18.57475864 -24.7409668 19.47045898 C-26.62005956 20.35329111 -28.50630977 21.2189309 -30.39453125 22.08203125 C-32.04739136 22.85123901 -32.04739136 22.85123901 -33.73364258 23.63598633 C-40.36171284 25.89653529 -45.19725097 24.67313163 -51.32421875 21.72265625 C-52.32724785 21.26009682 -52.32724785 21.26009682 -53.35054016 20.78819275 C-55.46887773 19.80865949 -57.5782835 18.81150098 -59.6875 17.8125 C-61.80887826 16.82056481 -63.93194249 15.83242097 -66.05659485 14.84751892 C-67.37329863 14.23579492 -68.68786016 13.61943231 -69.99992371 12.99781799 C-72.96190953 11.60928343 -75.77776532 10.37195806 -79 9.75 C-79.68707555 7.25935112 -80 5.37113708 -80 2.75 C-73.9453125 1.7734375 -73.9453125 1.7734375 -72 1.75 C-71.34 2.41 -70.68 3.07 -70 3.75 C-70.99 4.41 -71.98 5.07 -73 5.75 C-67.69069871 8.46670741 -62.35889556 11.13244973 -57 13.75 C-56.3390332 14.07468262 -55.67806641 14.39936523 -54.99707031 14.73388672 C-53.17568218 15.6164295 -51.3380643 16.46523609 -49.5 17.3125 C-48.4378125 17.80878906 -47.375625 18.30507813 -46.28125 18.81640625 C-39.3237299 20.79598637 -33.42933791 18.41613729 -27.21875 15.37109375 C-26.51979614 15.03956802 -25.82084229 14.7080423 -25.10070801 14.36647034 C-22.89522567 13.317402 -20.69767432 12.2528125 -18.5 11.1875 C-16.99529048 10.46835642 -15.49008608 9.75024733 -13.984375 9.03320312 C-10.31709052 7.28403546 -6.65682747 5.52091844 -3 3.75 C-3.99 3.09 -4.98 2.43 -6 1.75 C-3 -0.25 -3 -0.25 0 0 Z " fill="#101010" transform="translate(87,42.25)"/>
<path d="M0 0 C0.495 0.99 0.495 0.99 1 2 C-3.9888507 4.31918057 -8.98746775 6.61524738 -13.99633789 8.89086914 C-15.69742969 9.66753545 -17.39572754 10.45035266 -19.09106445 11.23950195 C-21.5340164 12.37534203 -23.98629153 13.488397 -26.44140625 14.59765625 C-27.19273331 14.952798 -27.94406036 15.30793976 -28.71815491 15.67384338 C-34.93621679 18.44010731 -39.01142519 18.12987082 -45.45678711 15.69311523 C-46.6350708 15.15372314 -47.81335449 14.61433105 -49.02734375 14.05859375 C-49.66112442 13.77146011 -50.29490509 13.48432648 -50.94789124 13.18849182 C-52.94837236 12.27986756 -54.94290186 11.35895563 -56.9375 10.4375 C-58.30235835 9.81493019 -59.66758969 9.1931774 -61.03320312 8.57226562 C-64.35983104 7.05759328 -67.68124356 5.5318559 -71 4 C-69.65893555 2.50048828 -69.65893555 2.50048828 -68 1 C-61.20486889 0.97912402 -54.79920642 5.46096202 -48.96289062 8.58203125 C-42.92763448 11.62802459 -38.56775241 13.11255519 -32 11 C-26.53074194 8.68186164 -21.31396091 5.8970702 -16.0625 3.12890625 C-5.81574083 -2.068905 -5.81574083 -2.068905 0 0 Z " fill="#F0F0F0" transform="translate(84,45)"/>
<path d="M0 0 C0 0.66 0 1.32 0 2 C-4.84602446 4.31945492 -9.70221594 6.61549041 -14.5690918 8.89086914 C-16.22179915 9.66746197 -17.87159756 10.45027804 -19.51831055 11.23950195 C-21.89146919 12.37555041 -24.27432976 13.48850609 -26.66015625 14.59765625 C-27.38960953 14.952798 -28.11906281 15.30793976 -28.87062073 15.67384338 C-33.66317029 17.86689449 -36.73570225 18.38075009 -42 17 C-44.37528193 16.10199278 -46.71840956 15.11557251 -49.02734375 14.05859375 C-49.66112442 13.77146011 -50.29490509 13.48432648 -50.94789124 13.18849182 C-52.94837236 12.27986756 -54.94290186 11.35895563 -56.9375 10.4375 C-58.30235835 9.81493019 -59.66758969 9.1931774 -61.03320312 8.57226562 C-64.35983104 7.05759328 -67.68124356 5.5318559 -71 4 C-69.65893555 2.50048828 -69.65893555 2.50048828 -68 1 C-61.20486889 0.97912402 -54.79920642 5.46096202 -48.96289062 8.58203125 C-42.92763448 11.62802459 -38.56775241 13.11255519 -32 11 C-26.53074194 8.68186164 -21.31396091 5.8970702 -16.0625 3.12890625 C-6.08133558 -1.93417836 -6.08133558 -1.93417836 0 0 Z " fill="#F0F0F0" transform="translate(84,63)"/>
<path d="M0 0 C0.495 1.98 0.495 1.98 1 4 C-5.97764845 7.51699836 -12.96590552 11.01188501 -19.96484375 14.48632812 C-22.54652525 15.77384625 -25.11827317 17.07853322 -27.6875 18.390625 C-28.97861329 19.03236455 -30.2702293 19.67309434 -31.5625 20.3125 C-32.65691406 20.86550781 -33.75132813 21.41851562 -34.87890625 21.98828125 C-40.89775364 23.93932189 -45.95075302 21.83653734 -51.4140625 19.12890625 C-52.58710937 18.55462891 -53.76015625 17.98035156 -54.96875 17.38867188 C-56.18769711 16.78034272 -57.4064455 16.17161521 -58.625 15.5625 C-61.03231861 14.37316239 -63.44203403 13.18876799 -65.8515625 12.00390625 C-66.91197754 11.47611572 -67.97239258 10.9483252 -69.06494141 10.40454102 C-71.67805957 9.15406116 -74.29662714 8.03786309 -77 7 C-77 5.68 -77 4.36 -77 3 C-68.49089076 5.60247287 -60.68909421 9.33387688 -52.70703125 13.23632812 C-51.68738281 13.71908203 -50.66773437 14.20183594 -49.6171875 14.69921875 C-48.70565918 15.14096436 -47.79413086 15.58270996 -46.85498047 16.0378418 C-39.71850797 18.44290748 -34.64098391 16.36800611 -28.22265625 13.28125 C-27.41130722 12.90391724 -26.59995819 12.52658447 -25.76402283 12.13781738 C-23.19081617 10.93762557 -20.62675024 9.71919209 -18.0625 8.5 C-16.31242142 7.67976704 -14.56177556 6.8607433 -12.81054688 6.04296875 C-8.53367117 4.04258344 -4.26489258 2.02580021 0 0 Z " fill="#EEEEEE" transform="translate(87,67)"/>
<path d="M0 0 C-0.21240234 1.84057617 -0.21240234 1.84057617 -1 4 C-2.98681641 5.3527832 -2.98681641 5.3527832 -5.6015625 6.55078125 C-6.55998047 6.99905273 -7.51839844 7.44732422 -8.50585938 7.90917969 C-9.53517578 8.37227539 -10.56449219 8.83537109 -11.625 9.3125 C-13.73179041 10.28250956 -15.83856122 11.2525617 -17.9453125 12.22265625 C-18.97946289 12.6933252 -20.01361328 13.16399414 -21.07910156 13.64892578 C-23.61859221 14.82357818 -26.12212764 16.04312182 -28.6171875 17.30859375 C-29.28411621 17.64141357 -29.95104492 17.9742334 -30.63818359 18.31713867 C-32.37709172 19.18841693 -34.11063876 20.07037208 -35.84375 20.953125 C-42.32412917 23.10255769 -47.87884688 20.44502585 -53.68359375 17.62109375 C-54.38396255 17.28956802 -55.08433136 16.9580423 -55.80592346 16.61647034 C-58.02075816 15.56559547 -60.22910035 14.50182092 -62.4375 13.4375 C-63.94685403 12.71853632 -65.45661609 12.00042859 -66.96679688 11.28320312 C-70.6493232 9.53199719 -74.32608815 7.76920261 -78 6 C-78 4.68 -78 3.36 -78 2 C-73.75988806 3.33839814 -69.781999 4.9411305 -65.75390625 6.8203125 C-64.00303711 7.62275391 -64.00303711 7.62275391 -62.21679688 8.44140625 C-60.38624738 9.28242309 -58.5578535 10.12718024 -56.73413086 10.98291016 C-54.95465307 11.81577569 -53.16683045 12.63073699 -51.37890625 13.4453125 C-50.3226001 13.93531738 -49.26629395 14.42532227 -48.17797852 14.93017578 C-41.27384835 17.25435942 -36.42327125 15.74579438 -30.16796875 12.75390625 C-29.45014725 12.42333725 -28.73232574 12.09276825 -27.99275208 11.75218201 C-25.71836967 10.70127928 -23.4530631 9.63226222 -21.1875 8.5625 C-19.64704539 7.84709804 -18.10603433 7.13289296 -16.56445312 6.41992188 C-2.7150367 0 -2.7150367 0 0 0 Z " fill="#EEEEEE" transform="translate(88,32)"/>
<path d="M0 0 C-0.21240234 1.84057617 -0.21240234 1.84057617 -1 4 C-2.98681641 5.3527832 -2.98681641 5.3527832 -5.6015625 6.55078125 C-6.55998047 6.99905273 -7.51839844 7.44732422 -8.50585938 7.90917969 C-9.53517578 8.37227539 -10.56449219 8.83537109 -11.625 9.3125 C-13.73179041 10.28250956 -15.83856122 11.2525617 -17.9453125 12.22265625 C-18.97946289 12.6933252 -20.01361328 13.16399414 -21.07910156 13.64892578 C-23.61859221 14.82357818 -26.12212764 16.04312182 -28.6171875 17.30859375 C-29.28411621 17.64141357 -29.95104492 17.9742334 -30.63818359 18.31713867 C-32.37709172 19.18841693 -34.11063876 20.07037208 -35.84375 20.953125 C-42.32412917 23.10255769 -47.87884688 20.44502585 -53.68359375 17.62109375 C-54.38396255 17.28956802 -55.08433136 16.9580423 -55.80592346 16.61647034 C-58.02075816 15.56559547 -60.22910035 14.50182092 -62.4375 13.4375 C-63.94685403 12.71853632 -65.45661609 12.00042859 -66.96679688 11.28320312 C-70.6493232 9.53199719 -74.32608815 7.76920261 -78 6 C-78 4.68 -78 3.36 -78 2 C-73.75988806 3.33839814 -69.781999 4.9411305 -65.75390625 6.8203125 C-64.00303711 7.62275391 -64.00303711 7.62275391 -62.21679688 8.44140625 C-60.38624738 9.28242309 -58.5578535 10.12718024 -56.73413086 10.98291016 C-54.95465307 11.81577569 -53.16683045 12.63073699 -51.37890625 13.4453125 C-50.3226001 13.93531738 -49.26629395 14.42532227 -48.17797852 14.93017578 C-41.27384835 17.25435942 -36.42327125 15.74579438 -30.16796875 12.75390625 C-29.45014725 12.42333725 -28.73232574 12.09276825 -27.99275208 11.75218201 C-25.71836967 10.70127928 -23.4530631 9.63226222 -21.1875 8.5625 C-19.64704539 7.84709804 -18.10603433 7.13289296 -16.56445312 6.41992188 C-2.7150367 0 -2.7150367 0 0 0 Z " fill="#EFEFEF" transform="translate(88,50)"/>
<path d="M0 0 C0.33 0.66 0.66 1.32 1 2 C-3.58701591 4.94039482 -6.7200306 5.31099035 -11.94140625 4.52734375 C-14.48136484 3.87669022 -16.14868639 2.85131361 -18 1 C-11.44535631 -2.8893985 -6.85471784 -3.8863802 0 0 Z " fill="#0F0F0F" transform="translate(76,27)"/>
<path d="M0 0 C0.495 0.33 0.99 0.66 1.5 1 C1.5 1.66 1.5 2.32 1.5 3 C-3.44816714 5.80396138 -8.11682285 4.77350507 -13.5 4 C-13.5 2.68 -13.5 1.36 -13.5 0 C-8.97258828 -1.50913724 -4.43573202 -1.77429281 0 0 Z " fill="#111111" transform="translate(36.5,27)"/>
<path d="M0 0 C-1.20381448 2.49361571 -2.45428722 4.68143083 -4 7 C-8.56454251 6.45660208 -11.9728176 5.20536179 -16 3 C-16 2.67 -16 2.34 -16 2 C-14.08404518 1.66259915 -12.16720278 1.33023588 -10.25 1 C-9.18265625 0.814375 -8.1153125 0.62875 -7.015625 0.4375 C-4 0 -4 0 0 0 Z " fill="#1E1E1E" transform="translate(52,33)"/>
<path d="M0 0 C2.97 0.33 5.94 0.66 9 1 C9 1.99 9 2.98 9 4 C10.32 4.33 11.64 4.66 13 5 C13 5.33 13 5.66 13 6 C11.02 6 9.04 6 7 6 C6.67 6.99 6.34 7.98 6 9 C5.608125 8.525625 5.21625 8.05125 4.8125 7.5625 C2.59191626 5.64820367 0.86624291 5.38733012 -2 5 C-1.67 4.360625 -1.34 3.72125 -1 3.0625 C0.07271225 1.23205433 0.07271225 1.23205433 0 0 Z " fill="#191919" transform="translate(44,18)"/>
</svg>
